<svg width="512" height="512" viewBox="0 0 512 512" xmlns="http://www.w3.org/2000/svg">
  <!-- Background gradient -->
  <defs>
    <linearGradient id="bg" x1="0%" y1="0%" x2="100%" y2="100%">
      <stop offset="0%" style="stop-color:#ec4899;stop-opacity:1" />
      <stop offset="100%" style="stop-color:#8b5cf6;stop-opacity:1" />
    </linearGradient>
    <linearGradient id="bottle" x1="0%" y1="0%" x2="100%" y2="100%">
      <stop offset="0%" style="stop-color:#ffffff;stop-opacity:0.9" />
      <stop offset="100%" style="stop-color:#f3f4f6;stop-opacity:0.9" />
    </linearGradient>
  </defs>
  
  <!-- Background circle -->
  <circle cx="256" cy="256" r="240" fill="url(#bg)" stroke="#ffffff" stroke-width="8"/>
  
  <!-- Baby bottle -->
  <g transform="translate(256,256)">
    <!-- Bottle body -->
    <rect x="-40" y="-80" width="80" height="120" rx="20" fill="url(#bottle)" stroke="#d1d5db" stroke-width="3"/>
    
    <!-- Bottle neck -->
    <rect x="-20" y="-100" width="40" height="20" fill="url(#bottle)" stroke="#d1d5db" stroke-width="3"/>
    
    <!-- Bottle cap -->
    <rect x="-25" y="-110" width="50" height="15" rx="7" fill="#fbbf24" stroke="#f59e0b" stroke-width="2"/>
    
    <!-- Milk level -->
    <rect x="-35" y="-20" width="70" height="50" rx="15" fill="#fef3c7" opacity="0.8"/>
    
    <!-- Measurements lines -->
    <line x1="-35" y1="-60" x2="-25" y2="-60" stroke="#9ca3af" stroke-width="2"/>
    <line x1="-35" y1="-40" x2="-25" y2="-40" stroke="#9ca3af" stroke-width="2"/>
    <line x1="-35" y1="-20" x2="-25" y2="-20" stroke="#9ca3af" stroke-width="2"/>
    
    <!-- Apple decoration -->
    <g transform="translate(60,60)">
      <circle cx="0" cy="0" r="25" fill="#ef4444"/>
      <ellipse cx="0" cy="-5" rx="20" ry="15" fill="#dc2626"/>
      <rect x="-2" y="-30" width="4" height="8" fill="#16a34a"/>
      <ellipse cx="8" cy="-25" rx="6" ry="3" fill="#22c55e"/>
    </g>
  </g>
  
  <!-- App name circle -->
  <circle cx="256" cy="420" r="60" fill="#ffffff" stroke="#8b5cf6" stroke-width="4"/>
  <text x="256" y="430" text-anchor="middle" font-family="Arial, sans-serif" font-size="24" font-weight="bold" fill="#8b5cf6">6M</text>
</svg>